<svg width="24" height="24" viewBox="0 0 24 24" fill="none" xmlns="http://www.w3.org/2000/svg">
<rect x="0.92041" y="0.92041" width="22.1592" height="22.1592" rx="11.0796" fill="#FFA236"/>
<rect x="0.92041" y="0.92041" width="22.1592" height="22.1592" rx="11.0796" stroke="#FFD431" stroke-width="1.84082"/>
<path d="M16.5395 13.7799C16.3408 13.9724 16.2496 14.2509 16.2948 14.5239L16.9767 18.2976C17.0342 18.6174 16.8992 18.9411 16.6315 19.126C16.3692 19.3177 16.0202 19.3407 15.7341 19.1873L12.3371 17.4155C12.2189 17.3526 12.0878 17.3189 11.9536 17.3151H11.7457C11.6736 17.3258 11.603 17.3488 11.5386 17.3841L8.14076 19.1643C7.97278 19.2487 7.78257 19.2786 7.59618 19.2487C7.14211 19.1628 6.83915 18.7302 6.91355 18.2738L7.59618 14.5001C7.64144 14.2248 7.55016 13.9448 7.35151 13.7492L4.58184 11.0647C4.3502 10.84 4.26967 10.5025 4.37552 10.198C4.47829 9.89424 4.74061 9.67258 5.05739 9.62272L8.86942 9.06971C9.15935 9.0398 9.41399 8.86338 9.54439 8.6026L11.2241 5.15873C11.264 5.08203 11.3154 5.01147 11.3775 4.95164L11.4466 4.89795C11.4826 4.85806 11.524 4.82508 11.5701 4.79824L11.6537 4.76756L11.784 4.71387H12.107C12.3954 4.74378 12.6492 4.91636 12.7819 5.17407L14.4839 8.6026C14.6066 8.85341 14.8452 9.02752 15.1205 9.06971L18.9326 9.62272C19.2547 9.66874 19.5239 9.89117 19.6305 10.198C19.731 10.5055 19.6444 10.843 19.4081 11.0647L16.5395 13.7799Z" fill="#FFD431"/>
</svg>
